<?xml version="1.0" encoding="UTF-8"?>
<svg id="Layer_2" data-name="Layer 2" xmlns="http://www.w3.org/2000/svg" viewBox="0 0 513.23 71.99">
  <defs>
    <style>
      .cls-1 {
        fill: #fff;
      }
    </style>
  </defs>
  <g id="Layer_1-2" data-name="Layer 1">
    <g>
      <path class="cls-1" d="M129.78,22.84c-4.95,0-8.69,1.84-11.2,5.52h-.22c-1.13-1.82-2.63-3.2-4.51-4.13-1.88-.93-4.13-1.39-6.75-1.39s-5.03.52-6.88,1.56c-1.86,1.04-3.37,2.5-4.53,4.4h-2.4v-5.35h-9.18v8.96h4.48v23.82h9.07v-17.98c0-2.48.57-4.32,1.72-5.52,1.15-1.2,2.85-1.8,5.11-1.8,4.7,0,7.05,2.44,7.05,7.32v17.98h9.07v-17.98c0-4.88,2.31-7.32,6.94-7.32s6.94,2.44,6.94,7.32v17.98h9.07v-19.72c0-4.19-1.24-7.51-3.72-9.97-2.48-2.46-5.83-3.69-10.05-3.69Z"/>
      <path class="cls-1" d="M174.61,24.75c-2.46-1.31-5.4-1.97-8.82-1.97s-6.53.68-9.1,2.05-4.54,3.32-5.93,5.85c-1.38,2.53-2.08,5.55-2.08,9.04s.71,6.53,2.13,9.1c1.42,2.57,3.44,4.55,6.06,5.96,2.62,1.4,5.7,2.1,9.23,2.1,4.33,0,7.9-.99,10.71-2.98,2.8-1.98,4.57-4.73,5.3-8.22h-9.07c-.47,1.35-1.28,2.35-2.4,3.01-1.13.66-2.66.98-4.59.98-2.44,0-4.41-.64-5.9-1.91-1.49-1.27-2.42-3.13-2.79-5.57h24.86v-3.06c0-3.39-.66-6.3-1.97-8.74-1.31-2.44-3.2-4.32-5.65-5.63ZM157.59,36.17c.47-2.04,1.41-3.59,2.81-4.64,1.4-1.06,3.21-1.58,5.44-1.58s3.99.52,5.3,1.56c1.31,1.04,2.11,2.6,2.4,4.67h-15.95Z"/>
      <path class="cls-1" d="M217.09,35.63c0-4.19-1.28-7.38-3.85-9.56-2.57-2.19-6.29-3.28-11.17-3.28-4.41,0-7.94.93-10.6,2.79-2.66,1.86-4.35,4.59-5.08,8.2h9.02c.76-2.55,2.99-3.82,6.67-3.82,4.22,0,6.34,1.77,6.34,5.3v1.26h-9.4c-4.23,0-7.47.87-9.73,2.62-2.26,1.75-3.39,4.24-3.39,7.49,0,3.06,1.09,5.53,3.28,7.4,2.19,1.88,5.21,2.81,9.07,2.81,2.84,0,5.21-.52,7.1-1.56,1.89-1.04,3.41-2.5,4.54-4.4h2.29v5.35h9.18v-8.96h-4.26v-11.64ZM208.4,43c0,1.31-.38,2.49-1.15,3.52-.77,1.04-1.8,1.87-3.11,2.49-1.31.62-2.82.93-4.54.93-1.57,0-2.81-.33-3.72-.98-.91-.66-1.37-1.58-1.37-2.79,0-2.44,1.64-3.66,4.92-3.66h8.96v.49Z"/>
      <path class="cls-1" d="M246.7,22.84c-2.88,0-5.28.52-7.21,1.56-1.93,1.04-3.53,2.5-4.81,4.4h-2.29v-5.35h-9.18v8.96h4.48v23.82h9.07v-17.92c0-2.4.65-4.23,1.94-5.49,1.29-1.26,3.18-1.89,5.65-1.89s4.36.63,5.66,1.89c1.29,1.26,1.94,3.09,1.94,5.49v17.92h9.07v-19.62c0-4.19-1.25-7.53-3.74-10.03-2.5-2.49-6.02-3.74-10.57-3.74Z"/>
      <path class="cls-1" d="M273.84,7.07l-.56-2.78h-1.26l-.56,2.78c-.42,2.1-2.07,3.75-4.17,4.17l-2.78.56v1.26l2.78.56c2.1.42,3.75,2.07,4.17,4.17l.56,2.78h1.26l.56-2.78c.42-2.1,2.07-3.75,4.17-4.17l2.78-.56v-1.26l-2.78-.56c-2.1-.42-3.75-2.07-4.17-4.17Z"/>
      <rect class="cls-1" x="268.12" y="23.44" width="9.07" height="32.78"/>
      <path class="cls-1" d="M305.93,22.84c-2.88,0-5.28.52-7.21,1.56-1.93,1.04-3.53,2.5-4.81,4.4h-2.29v-5.35h-9.18v8.96h4.48v23.82h9.07v-17.92c0-2.4.65-4.23,1.94-5.49,1.29-1.26,3.18-1.89,5.65-1.89s4.36.63,5.66,1.89c1.29,1.26,1.94,3.09,1.94,5.49v17.92h9.07v-19.62c0-4.19-1.25-7.53-3.74-10.03-2.5-2.49-6.02-3.74-10.57-3.74Z"/>
      <path class="cls-1" d="M355.54,28.8h-2.29c-1.17-1.89-2.72-3.37-4.67-4.43-1.95-1.06-4.31-1.58-7.08-1.58-4.92,0-8.79,1.51-11.61,4.53-2.82,3.02-4.23,7.09-4.23,12.18,0,3.39.63,6.34,1.89,8.85,1.26,2.51,3.02,4.45,5.3,5.82,2.28,1.37,4.96,2.05,8.06,2.05,2.4,0,4.47-.46,6.2-1.37,1.73-.91,3.09-2.24,4.07-3.99h.27v4.37c0,2.44-.76,4.31-2.27,5.6-1.51,1.29-3.69,1.94-6.53,1.94-4.19,0-6.72-1.35-7.59-4.04h-9.62c.58,3.53,2.41,6.29,5.49,8.28,3.08,1.98,7.08,2.98,11.99,2.98,5.57,0,9.85-1.28,12.84-3.82,2.99-2.55,4.48-6.16,4.48-10.82v-22.95h4.48v-8.96h-9.18v5.35ZM351.17,40.6c0,2.4-.71,4.3-2.13,5.68-1.42,1.38-3.39,2.08-5.9,2.08-2.66,0-4.73-.76-6.2-2.29-1.48-1.53-2.21-3.7-2.21-6.5s.74-4.99,2.21-6.56c1.48-1.57,3.54-2.35,6.2-2.35,2.48,0,4.43.68,5.87,2.05,1.44,1.37,2.16,3.23,2.16,5.6v2.29Z"/>
      <path class="cls-1" d="M384.16,17.43h12.16v-7.1h-13.52c-2.37,0-4.21.59-5.52,1.78-1.31,1.18-1.97,3.01-1.97,5.49v5.85h-5.96v8.99h5.85v23.79h9.07v-23.79h7.27v-8.99h-7.38v-6.01Z"/>
      <path class="cls-1" d="M429.64,23.44h-9.07v17.92c0,2.37-.68,4.19-2.05,5.46-1.37,1.28-3.31,1.91-5.82,1.91s-4.27-.59-5.49-1.78c-1.22-1.18-1.83-2.96-1.83-5.33v-18.19h-9.07v19.94c0,4.15,1.22,7.43,3.66,9.83,2.44,2.4,5.94,3.61,10.49,3.61,3.06,0,5.53-.51,7.4-1.53,1.88-1.02,3.47-2.49,4.78-4.43h2.29v5.35h9.18v-8.96h-4.48v-23.82Z"/>
      <rect class="cls-1" x="439.81" y="10.33" width="9.07" height="45.9"/>
      <path class="cls-1" d="M489.3,46.62v-11c0-4.37-1.37-7.75-4.08-10.05-2.67-2.28-6.57-3.43-11.59-3.43-4.52,0-8.21.98-10.97,2.9-2.79,1.95-4.58,4.84-5.34,8.59l-.15.77h10.27l.14-.46c.68-2.27,2.66-3.37,6.05-3.37,3.89,0,5.7,1.48,5.7,4.66v.62h-8.76c-4.35,0-7.75.93-10.12,2.76-2.41,1.87-3.64,4.56-3.64,7.99,0,3.24,1.18,5.89,3.5,7.89,2.29,1.97,5.49,2.97,9.49,2.97,2.94,0,5.43-.55,7.41-1.64,1.88-1.03,3.42-2.48,4.59-4.32h1.3v5.35h10.46v-10.24h-4.26ZM480.61,43c0,1.45-.43,2.76-1.27,3.9-.83,1.12-1.95,2.02-3.36,2.69-1.39.66-3.01.99-4.81.99-1.7,0-3.07-.37-4.09-1.1-1.08-.78-1.63-1.89-1.63-3.31,0-1.96.96-4.3,5.56-4.3h9.6v1.13Z"/>
      <path class="cls-1" d="M499.28,56.87h10.35V22.8h-10.35v34.06Z"/>
      <path class="cls-1" d="M509.94,10.61c-1.86-.37-3.3-1.81-3.67-3.67l-.66-3.29h-2.3l-.66,3.29c-.37,1.86-1.81,3.3-3.67,3.67l-3.29.66v2.3l3.29.66c1.86.37,3.3,1.81,3.67,3.67l.66,3.29h2.3l.66-3.29c.37-1.86,1.81-3.3,3.67-3.67l3.29-.66v-2.3l-3.29-.66Z"/>
    </g>
    <path class="cls-1" d="M45.45,60.91c-1.55,1.07-4.93,3.4-7.78,5.37.26.42.57.8.93,1.14.34-.33.65-.69.91-1.09t0,0c.07-.11.14-.23.21-.34,0,0,0-.02.01-.03.06-.1.11-.21.16-.32,0-.02.02-.03.02-.05.06-.12.11-.25.16-.38.19.67.46,1.31.81,1.9.24.4.5.77.8,1.12.01.01.02.03.04.04.17.19.35.38.53.55.99-.94,1.74-2.13,2.14-3.48.03.08.07.16.1.24,0,.02.02.03.02.05.05.11.11.22.16.32,0,0,0,.02.01.03.07.12.13.23.21.34h0c.26.4.56.77.91,1.09,1.14-1.07,1.85-2.59,1.85-4.28,0-.7-.12-1.13-.35-1.47-.35-.54-.93-.8-1.5-.8-.12,0-.25.02-.37.04Z"/>
    <path class="cls-1" d="M33.08,26.32s.02.02.02.02l4.42,4.62-4.42,10.8-.02.05s-.02-.05-.02-.05l-4.42-10.8,4.42-4.62.02-.02Z"/>
    <g>
      <polygon class="cls-1" points="36.17 37.19 34.13 42.18 34.11 42.22 33.08 44.74 32.06 42.22 32.04 42.18 30 37.19 11.09 38.56 16.78 50.28 33.06 66.32 49.35 50.28 55.04 38.56 36.17 37.19"/>
      <path class="cls-1" d="M33.08,41.81s.02-.05.02-.05l1.9-4.65-.65-.05-3.12.04h-.07s1.9,4.66,1.9,4.66c0,0,0,.02.02.05Z"/>
    </g>
    <path class="cls-1" d="M46.52,18.32c3.63,0,6.59,2.96,6.59,6.59s-2.96,6.59-6.59,6.59-6.59-2.96-6.59-6.59,2.96-6.59,6.59-6.59M46.52,15.55c-5.17,0-9.36,4.19-9.36,9.36s4.19,9.36,9.36,9.36,9.36-4.19,9.36-9.36-4.19-9.36-9.36-9.36h0Z"/>
    <circle class="cls-1" cx="44.68" cy="22.34" r="2.2"/>
    <circle class="cls-1" cx="49.66" cy="27.41" r="1.07"/>
    <circle class="cls-1" cx="17.8" cy="22.34" r="2.2"/>
    <circle class="cls-1" cx="22.78" cy="27.41" r="1.07"/>
    <path class="cls-1" d="M19.64,15.55c-5.17,0-9.36,4.19-9.36,9.36s4.19,9.36,9.36,9.36,9.36-4.19,9.36-9.36-4.19-9.36-9.36-9.36ZM19.64,31.5c-3.63,0-6.59-2.96-6.59-6.59s2.96-6.59,6.59-6.59,6.59,2.96,6.59,6.59-2.96,6.59-6.59,6.59Z"/>
    <g>
      <path class="cls-1" d="M20.33,60.87c-.58,0-1.15.27-1.5.8-.22.34-.35.77-.35,1.47,0,1.69.71,3.2,1.85,4.28.34-.33.65-.69.91-1.09h0c.07-.11.14-.23.21-.34,0,0,0-.02.01-.03.06-.1.11-.21.16-.32,0-.02.02-.03.02-.05.06-.12.11-.25.16-.38.19.67.46,1.31.81,1.9.24.4.5.77.8,1.12.01.01.02.03.04.04.17.19.35.38.53.55.99-.94,1.74-2.13,2.14-3.48.03.08.07.16.1.24,0,.02.02.03.02.05.05.11.11.22.16.32,0,0,0,.02.01.03.07.12.13.23.21.34,0,0,0,0,0,0h0c.26.4.56.77.91,1.09.35-.33.66-.72.92-1.13-2.85-1.97-6.25-4.31-7.8-5.38-.11-.02-.23-.04-.34-.04Z"/>
      <path class="cls-1" d="M66.1,44.53c-.78-7.11-4.43-11.15-6.14-12.68l3.18-6.11-6.08-11.81L63.4,0l-20.34,7.61-9.69-1.2h-.56l-9.69,1.2L2.77,0l6.33,13.93-6.08,11.81,3.17,6.09c-1.7,1.52-5.39,5.56-6.17,12.7l-.03.25.07.24c.06.22,1.62,5.32,5.42,8.17l1.23.93.79-1.78c1.68,1.57,4.97,4.45,9.67,7.69-.1.12-.2.25-.28.38-.49.75-.72,1.62-.72,2.73,0,2.24.94,4.41,2.57,5.95l1.58,1.5,1.15-1.09c.06.08.13.15.19.23h0s.03.04.04.05c.22.25.45.49.69.71l1.58,1.5,1.58-1.5c.31-.3.61-.61.88-.95l1.1,1.04,1.58-1.5c.17-.16.34-.34.49-.51,1.5,1.03,2.59,1.79,2.74,1.89l.7.48.7-.48c.15-.11,1.25-.86,2.76-1.9.16.18.33.36.5.52l1.58,1.5,1.15-1.09c.06.08.13.15.19.23.02.02.03.04.04.05.22.25.45.49.69.71l1.58,1.5,1.58-1.5c.31-.3.61-.61.88-.95l1.1,1.04,1.58-1.5c1.63-1.54,2.57-3.71,2.57-5.95,0-1.11-.23-1.98-.72-2.73-.09-.14-.19-.27-.29-.39,4.69-3.24,7.97-6.11,9.65-7.68l.79,1.78,1.23-.93c3.79-2.85,5.35-7.95,5.42-8.17l.07-.24-.03-.25ZM59.9,52.2l-.88-1.98s-4.38,4.54-12.16,9.72c.56.21,1.05.6,1.39,1.11.36.56.53,1.2.53,2.08,0,1.94-.78,3.74-2.2,5.08l-.76.72-.76-.72c-.17-.16-.34-.34-.5-.52-.42.7-.94,1.35-1.54,1.92l-.76.72-.76-.72c-.21-.2-.41-.41-.6-.63l-.04-.05c-.34-.39-.65-.82-.92-1.27,0-.01-.01-.02-.02-.03-.17.21-.36.4-.55.58l-.76.72-.76-.72c-.42-.4-.78-.84-1.08-1.31-1.97,1.36-3.52,2.43-3.7,2.55-.18-.13-1.72-1.18-3.68-2.54-.3.47-.66.91-1.08,1.3l-.76.72-.76-.72c-.17-.16-.34-.34-.5-.52-.42.7-.94,1.35-1.54,1.92l-.76.72-.76-.72c-.21-.2-.41-.41-.6-.63l-.04-.05c-.34-.39-.65-.82-.92-1.27,0-.01-.01-.02-.02-.03-.17.21-.36.4-.55.58l-.76.72-.76-.72c-1.42-1.34-2.2-3.14-2.2-5.08,0-.88.16-1.52.53-2.08.34-.51.82-.89,1.37-1.11-7.79-5.19-12.17-9.73-12.17-9.73l-.88,1.98c-3.51-2.63-4.98-7.54-4.98-7.54.95-8.71,6.5-12.52,6.5-12.52l-3.34-6.41,6.06-11.77L5.11,2.19l17.85,6.68,9.92-1.23h.41l9.92,1.23,17.85-6.68-5.35,11.77,6.06,11.77-3.35,6.43c.28.2,5.55,4.02,6.47,12.5,0,0-1.46,4.9-4.98,7.54Z"/>
    </g>
    <path class="cls-1" d="M26.25,61.42s-.03.03-.04.04c-.02-.04-.04-.08-.05-.13l-1.94-1.85c-.08-.01-.16-.02-.24-.02-.48,0-.95.19-1.31.56-.28.29-.51.59-.7.92-.03.06-.06.11-.09.17-.06.13-.12.28-.17.42,0,0-.02-.02-.02-.03-.01-.02-.03-.03-.04-.05-.03-.04-.07-.07-.11-.11-.01-.01-.03-.03-.04-.04-.05-.04-.1-.09-.16-.12,0,0,0,0-.01,0-.05-.03-.1-.07-.16-.09-.02-.01-.04-.02-.06-.03-.04-.02-.08-.04-.13-.06-.02,0-.04-.02-.06-.02-.06-.02-.12-.04-.18-.05-.7-.17-1.49.08-1.94.75-.22.34-.35.77-.35,1.47,0,1.69.71,3.2,1.85,4.28.34-.33.65-.69.91-1.09h0c.07-.11.14-.23.21-.34,0,0,0-.02.01-.03.06-.1.11-.21.16-.32,0-.02.02-.03.02-.05.06-.12.11-.25.16-.38.19.67.46,1.31.81,1.9.24.4.5.77.8,1.12.01.01.02.03.04.04.17.19.35.38.53.55.99-.94,1.74-2.13,2.14-3.48.03.08.07.16.1.24,0,.02.02.03.02.05.05.11.11.22.16.32,0,0,0,.02.01.03.07.12.13.23.21.34h0c.26.4.56.77.91,1.09.87-.82,1.49-1.9,1.73-3.12l-3.02-2.88Z"/>
    <path class="cls-1" d="M47.33,61.67c-.44-.67-1.23-.92-1.94-.75-.06.01-.12.03-.18.05-.02,0-.04.02-.06.02-.04.02-.08.04-.13.06-.02,0-.04.02-.06.03-.05.03-.11.06-.16.09,0,0,0,0-.01,0-.05.04-.11.08-.16.12-.02.01-.03.03-.04.04-.04.03-.07.07-.1.1-.2-.56-.51-1-.93-1.44-.35-.37-.83-.56-1.31-.56s-.95.19-1.31.56c-.28.29-.51.59-.7.92-.03.06-.06.11-.09.17-.06.13-.12.28-.17.42,0,0-.02-.02-.02-.03-.01-.02-.03-.03-.04-.05-.03-.04-.07-.07-.11-.11-.01-.01-.03-.03-.04-.04-.03-.03-.06-.05-.1-.08l-2.85,2.87c.21,1.3.85,2.45,1.76,3.32.34-.33.65-.69.91-1.09t0,0c.07-.11.14-.23.21-.34,0,0,0-.02.01-.03.06-.1.11-.21.16-.32,0-.02.02-.03.02-.05.06-.12.11-.25.16-.38.19.67.46,1.31.81,1.9.24.4.5.77.8,1.12.01.01.02.03.04.04.17.19.35.38.53.55.99-.94,1.74-2.13,2.14-3.48.03.08.07.16.1.24,0,.02.02.03.02.05.05.11.11.22.16.32,0,0,0,.02.01.03.07.12.13.23.21.34h0c.26.4.56.77.91,1.09,1.14-1.07,1.85-2.59,1.85-4.28,0-.7-.12-1.13-.35-1.47Z"/>
  </g>
</svg>